<svg xmlns="http://www.w3.org/2000/svg" viewBox="0 0 64 64">
  <defs>
    <linearGradient id="g" x1="0" y1="0" x2="1" y2="1">
      <stop offset="0%" stop-color="#14b8a6" />
      <stop offset="100%" stop-color="#0ea5e9" />
    </linearGradient>
  </defs>
  <rect x="4" y="4" width="56" height="56" rx="14" fill="#ffffff" />
  <rect x="6" y="6" width="52" height="52" rx="12" fill="none" stroke="url(#g)" stroke-width="3" />
  <path d="M20 22h9v20h-4V26h-5z" fill="#0f172a" />
  <path d="M34 22h10c5 0 8 2.5 8 7.2 0 2.7-1.3 4.7-3.7 5.8L53 42h-5.3l-4.1-6.2H38V42h-4zM38 32h5.7c2.4 0 3.7-1 3.7-2.8 0-1.7-1.3-2.6-3.7-2.6H38z" fill="#14b8a6" />
</svg>
